P1
2048 8
00000000011111100111111001101100000100000011100000010000000000001111111100000000111111110000111100111100001111110111111110011001100000000000001000011000011001100111111101111110000000000001100000011000000110000000000000000000000000000000000000000000000000000000000000110000011011000110110000110000000000000011100001100000000110000110000000000000000000000000000000000000000000000000011001111000001100000111100001111000000111001111110000111000111111000111100001111000000000000000000000011000000000000110000001111000011111000011000011111100001111001111110011111110111111100011110011001100011110000001111011100110111100001100011011000110001110001111110001111000111111000111100011111100110011001100110011000110110001101100110011111110011110001100000001111000000100000000000000110000000000001110000000000000000111000000000000111000000000001110000000110000000110001110000001110000000000000000000000000000000000000000000000000000000000000001000000000000000000000000000000000000000000000000000000011100000110001110000001110110000100000111100000000000000111000111111011001100111000000011000000000000011111101100110011100000110011000111110011100000110011000011000000011100000000000011111001111000000000000000000001111000000000000000000011000110110011000001100000111000110011001111000000001110000111000011100000000000000000000000000011111100001111000011110000110000000000000000000011000110110001100000000000000000000000000010001001010101110111000001100000011000000110000011011000000000000000000011011000110110000000000011011000110110000110000000000000011000000110000000000000011000000000000001100000011000001101100011011000000000001101100000000000110110000000000011011000011000001101100000000000000000001101100001100000000000000000000011011000011000000110000000000011111111000000001111000000001111111111110000000000000000000000000000000011111110000000000000000000000000111111000011100000111000000111000000000000000110001111000111100000000000001100000110000000011000000011100001100000110000000000000011100000000000000000000000111101111000011110000000000000000000
00000000100000011111111111111110001110000111110000010000000000001111111100111100110000110000011101100110001100110110001101011010111000000000111000111100011001101101101111000011000000000011110000111100000110000001100000110000000000000010010000011000111111110000000001111000011011000110110001111100110001100110110001100000001100000011000001100110001100000000000000000000000000000000110011001100111100001100110011001100001111001100000001100000110011001100110011001100000000000000000000110000000000000011000011001100110001100111100001100110011001100110110001100010011000100110011011001100001100000000110001100110011000001110111011100110011011000110011011001100011001101100110010110100110011001100110011000110110001101100110011001100011000000110000000011000001110000000000000110000000000000110000000000000000011000000000001101100000000000110000000000000000000000110000000110000000000000000000000000000000000000000000000000000000000000011000000000000000000000000000000000000000000000000000000110000000110000011000011011100001110001100110011001100000000001100001100000000000000000011000000000000110000110000000000000000000000001100011000000000001100000011000000000000000000000110110011001100110011001110000011001100111000001100110000111000000000000001100001101100110011001101100000011011000000000000000000011100000111001111100000000000011011000110011000000000000000000000000011001100110011000001100000110011110011001000100010101010011101100001100000011000000110000011011000000000000000000011011000110110000000000011011000110110000110000000000000011000000110000000000000011000000000000001100000011000001101100011011000000000001101100000000000110110000000000011011000011000001101100000000000000000001101100001100000000000000000000011011000011000000110000000000011111111000000001111000000001111111111110000000001111000111111101111111001100110000000000110011001110110001100000110110001101100001100000000000000001100011000001100110011111100001100000011000000110000000110110001100000110000011100100110110000000000000000000000110001101100000011000000000000000000
00000000101001011101101111111110011111000011100000111000000110001110011101100110100110010000111101100110001111110111111100111100111110000011111001111110011001101101101101111000000000000111111001111110000110000000110001100000110000000110011000111100111111110000000001111000011011001111111011000000110011000011100011000000011000000001100000111100001100000000000000000000000000000001100011011100001100000000110000001100011011001111100011000000000011001100110011001100001100000011000001100000111111000001100000001100110111101100110001100110110000000110011001101000011010001100000011001100001100000000110001101100011000001111111011110110110001100110011011001100011001101110000000110000110011001100110011000110011011001100110010011000011000000011000000011000011011000000000000011000011110000110000001111000000011000111100001100000011101100110110001110000011110000110011000110000111011001111100001111000110111000111011011011000011111000111110011001100110011001100011011000110110011001111110000110000000110000011000000000000011011001100000000000000011110000011110001111000011110000111100001111100001111000111100001111000011100000011100001110000011110000000000011111100011111111100110000000000000000000000000000000000000000000000000001111100110011000111111001100100011110001101100000011000011110000111000000000000000000000000000011001100011011000110011000110000000000000000000011011000110110000000000001100110011001100010001001010101110111000001100000011000111110000011011000000000111110001111011000110110111111101111011000110110111110000000000000011000000110000000000000011000000000000001100000011111001101100011011100111111111101111111111100110111111111111111011111111111001101101111111100000000001101100001111100011111000000000011011011111111000110000000000011111111000000001111000000001111111111110111011011001100110001100110110000110000011111100110011011011100011110001100011011000110000110000111111001111110110000001100110000000000111111000001100001100000000110110001100000000000100111000110110000000000000000000000110001101100001110000011110000000000
00000000100000011111111111111110111111101111111001111100001111001100001101000010101111010111110101100110001100000110001111100111111111101111111000011000011001100111101111001100000000000001100000011000000110001111111011111110110000001111111101111110011111100000000000110000000000000110110001111000000110000111011000000000011000000001100011111111111111000000000011111100000000000011000011111100001100000011100000111000110011000000110011111000000110000111100001111100001100000011000011000000000000000000110000011000110111101100110001111100110000000110011001111000011110001100000011111100001100000000110001111000011000001101011011011110110001100111110011001100011111000011100000110000110011001100110011010110001110000111100000110000011000000001100000011000110001100000000000000000000011000111110011001100011111001100110011110000110011000111011000110000000110000110110000110000111111101100110011001100011001101100110001101100110000000011000011001100110011001100011001101100110011001001100011100000000000000001110000000000110001101100110011001100110011000000011000001100000011000000110011000000011001101100110011001100001100000001100000110000110011000111100001100000000011001111111001111000011110000111100011001100110011001100110011000110110011001100000011110000111111001111010001111110000011000011000001111000110011001111100011101100001111100011110001100000111111001111110000111110111100110001100011001100001100111000100010101010011101100001100000011000000110000011011000000000000110000000011000110110000001100000011000110110000110000000000000011000000110000000000000011000000000000001100000011000001101100011000000110000000000000000000000110000000000000000000000000000001101100000000000000000001101100001100000011000000000000011011000000000000110000000000011111111000000001111000000001111111111111101110011111000110000000110110000011000110011000110011000011000110011001111111011000110011111001101101111011011111111001100110011111100001100000011000000110000000110000001100011111100000000000011100000011000000000000000110001101100011000000011110000000000
00000000101111011100001101111100011111001111111011111110001111001100001101000010101111011100110000111100001100000110001111100111111110000011111000011000011001100001101111001100011111100111111000011000011111100000110001100000110000000110011011111111001111000000000000110000000000001111111000001100001100001101110000000000011000000001100000111100001100000000000000000000000000000110000011101100001100000110000000001100111111100000110011001100001100001100110000001100000000000000000001100000111111000001100000110000110111101111110001100110110000000110011001101000011010001100111011001100001100001100110001101100011000101100011011001110110001100110000011011100011110000001110000110000110011001100110011111110011011000011000001100010011000000000110000011000000000000000000000000000011111000110011011000000110011001111110001100000110011000110011000110000000110000111100000110000110101101100110011001100011001101100110001101100011110000011000011001100110011001101011000111000110011000011000000110000000110000011000000000000110001100111100011001100111111000011111001111100011111000111110011000000011111101111110011111100001100000001100000110000110011001100110001111000011111111100110011001100110011001100110011001100110011001100110011000110110011001100000001100000001100001100110000011000011111000011000011001100110011001100110011111100000000000000000011000000110000000000110001100011011001110001100001100110011001100010001001010101110111000001100011111000111110001111011011111110111110001111011000110110111101101111111011111110111110001111100000011111111111111111111100011111111111111111111100011111001101110011111100110111111111111111011100110111111111111111011111111111111111111111111111111111001111110001111100011111001111111111011111111111111110000001111111111111111111111111000000001111000000001100100011001100110000000110110000110000110011000110011000011000110011001100011001101100110011001101101111011011110000001100110000000000001100000110000000011000000110000001100000000000011100100000000000011000000110001110110001101100011111000011110000000000
00000000100110011110011100111000001110001101011001111100000110001110011101100110100110011100110000011000011100000110011100111100111000000000111001111110000000000001101101111000011111100011110000011000001111000001100000110000111111100010010011111111000110000000000000000000000000000110110011111000011001101100110000000000001100000011000001100110001100000111000000000000001100001100000011001100001100001100110011001100000011001100110011001100011000001100110000011000001100000111000000110000000000000011000000000000110000001100110001100110011001100110110001100010011000000110011011001100001100001100110001100110011001101100011011000110011011000110000001111000011011001100110000110000110011000111100011101110110001100011000011000110011000000000011000011000000000000000000000000000110011000110011011001100110011001100000001100000011111000110011000110000000110000110110000110000110001101100110011001100011111000111110001100000000011000011010011001100011110001111111001101100011111000110010000110000000110000011000000000000110001100001100011001100110000000110011011001100110011001100110001111100011000001100000011000000001100000001100000110000111111001111110001100000110011001100110011001100110011001100110011001100110011001111110001111100110011000111111011100110111111001101111000011000110011000011000011001100110011001100110011011100011111100111111011001100110000000000110011001110110011110011110000110011110011001000100010101010011101100001100000011000000110000011011000110110000110000011011000110110001101100000000000000000000000000001100000000000000000000001100000011000000000000001100000011000001101100000000000110110000000000011011000110110000000000011011000000000000000000001100000110110000000000000000000011000001101100011011000011000000000000001100011111111111111111111000000001111000000001101110011111000110000000110110001100110110011000111110000011000011110000110110001101100110011000111111001111110011000001100110011111100000000000000000000000000000110001101100000110000100111000000000000000000000000000110110000000000000000000011110000000000
00000000100000011111111100010000000100000001000000010000000000001111111100111100110000111100110001111110111100001110011001011010100000000000001000111100011001100001101110001100011111100001100000011000000110000000000000000000000000000000000000000000000000000000000000110000000000000110110000110000110001100111011000000000000110000110000000000000000000000011000000000000001100001000000001111000111111001111110001111000000011000111100001111000011000000111100001110000001100000011000000011000000000000110000000110000011110001100110011111100001111001111110011111110111100000011111011001100011110000111100011100110111111101100011011000110001110001111000000011100111001100111100001111000111111000011000011000110110001100111100011111110011110000000001001111000000000000000000000000000011101101011110001111000011101100111100011110000000011001110011001111000110110001110011001111000110001101100110001111000011000000000110011110000111110000001100001110110001100000110110011000110000011001111110000011100000110001110000000000000111111100000110001111110011110000011111101111110011111100111111000000110001111000111100001111000011110000011110001111000110011001100110011111100011111111100111001111000011110000111100001111110011111100000110000111000011110000001100011111100001100001100110011011000011111100111100001111000011111101100110011001100000000000000000001111000000000000000000010011000100111110011110000000000000000000010001001010101110111000001100000011000000110000011011000110110000110000011011000110110001101100000000000000000000000000001100000000000000000000001100000011000000000000001100000011000001101100000000000110110000000000011011000110110000000000011011000000000000000000001100000110110000000000000000000011000001101100011011000011000000000000001100011111111111111111111000000001111000000000111011011000000110000000110110011111110011110000110000000011000001100000011100011101110011110000000000001100000001111001100110000000000111111001111110011111100000110001101100000110000000000000000000000000000000000000011110000000000000000000000000000000000
00000000011111100111111000000000000000000011100000111000000000001111111100000000111111110111100000011000111000001100000010011001000000000000000000011000000000000000000011111000000000001111111100000000000000000000000000000000000000000000000000000000000000000000000000000000000000000000000000000000000000000000000000000000000000000000000000000000000000000110000000000000000000000000000000000000000000000000000000000000000000000000000000000000000000000000000000000000000000000110000000000000000000000000000000000000000000000000000000000000000000000000000000000000000000000000000000000000000000000000000000000000000000000000000000000000000000000000000000000000000000000000000000000000000000000000000000000000000000000000000000000000000000000000000000000000000000001111111100000000000000000000000000000000000000000000000000000000111110000000000000000000011100000000000000000000000000000000000000000000111100000001111000000000000000000000000000000000000000000000000000000000111110000000000000000000000000000000000000000000000000000111100000000000000000000000000000000000000000000000000000111100000000000000000000000000000000000000000000000000000000000000000000000000000000000000000000000000000000000000000000000000000000001111100000000000000000000001100000000000000000000000111001110000000000000000000000000000000000000000000000000000000000000000000000000000000000000000000000011111000000110001100000000000000000001000100010101010011101100001100000011000000110000011011000110110000110000011011000110110001101100000000000000000000000000001100000000000000000000001100000011000000000000001100000011000001101100000000000110110000000000011011000110110000000000011011000000000000000000001100000110110000000000000000000011000001101100011011000011000000000000001100011111111111111111111000000001111000000000000000011000000000000000000000000000000000000001100000000000000111111000000000000000000000000000000000011000000000000000000000000000000000000000000000000000000000110000111000000000000000000000000000000000000000000000001110000000000000000000000000000000000
